# xmcd
#
# Track frame offsets:
#	182
#	14937
#	29562
#	42600
#	55672
#	69130
#	87455
#	103050
#	118312
#	133957
#	152220
#
# Disc length: 2212 seconds
#
# Revision: 2
# Processed by: cddbd v1.5.1PL0 Copyright (c) Steve Scherf et al.
# Submitted via: audiograbber 1.83.01
#
DISCID=a508a20b
DTITLE=Hank Flamingo - Hank Flamingo
DYEAR=1994
DGENRE=Southern Rock
TTITLE0=Little Miss Fire Prevention
TTITLE1=Baby It's You
TTITLE2=When You Ran With Me
TTITLE3=Tennessee Plates
TTITLE4=White Lightnin'
TTITLE5=Redneck Martians Stole My Baby
TTITLE6=Promised Land
TTITLE7=Gooseneck Trailer
TTITLE8=Granddaddy's Place
TTITLE9=Too Many Nights
TTITLE10=Slaw
EXTD=
EXTT0=
EXTT1=
EXTT2=
EXTT3=
EXTT4=
EXTT5=
EXTT6=
EXTT7=
EXTT8=
EXTT9=
EXTT10=
PLAYORDER=
